<svg width="29" height="29" viewBox="0 -3 29 29" fill="none" xmlns="http://www.w3.org/2000/svg">
<path d="M7.09767 6.73448C4.14863 6.7345 1.75797 9.12516 1.75794 12.0742C1.758 15.0232 4.14868 17.4139 7.09767 17.414L19.5397 17.4139C20.0255 17.4139 20.4193 17.8077 20.4192 18.2934C20.4193 18.7792 20.0255 19.173 19.5397 19.1729L7.09768 19.173C3.17709 19.1731 -0.00114885 15.9948 -0.00112373 12.0742C-0.00108627 8.15364 3.17713 4.97543 7.09767 4.97543L12.441 4.9754L8.96701 1.50147C8.62354 1.15799 8.62354 0.601093 8.96701 0.257617C9.31049 -0.0858603 9.86739 -0.0858603 10.2109 0.257617L15.1863 5.23302C15.2706 5.31734 15.3342 5.41453 15.3771 5.51827C15.4182 5.61726 15.4417 5.72536 15.4437 5.83871C15.4439 5.84953 15.4439 5.86035 15.4437 5.87118C15.4417 5.98453 15.4182 6.09263 15.3771 6.19162C15.3342 6.29535 15.2706 6.39254 15.1863 6.47687L10.2109 11.4523C9.86739 11.7957 9.31049 11.7957 8.96701 11.4523C8.62354 11.1088 8.62354 10.5519 8.96701 10.2084L12.441 6.73448L7.09767 6.73448Z" fill="black"/>
</svg>
