<svg width="60" height="60" viewBox="-0.5 -6 34 34" fill="none" xmlns="http://www.w3.org/2000/svg">
<path fill-rule="evenodd" clip-rule="evenodd" d="M16.7422 21.0181C15.4975 21.0181 15.183 20.9971 14.4978 20.8687C14.0582 20.7869 13.3638 20.6244 12.9491 20.5058C12.5449 20.3905 11.8938 20.1724 11.4974 20.0197C11.1057 19.8684 10.3824 19.5369 9.88521 19.2808C9.38209 19.022 8.66279 18.6198 8.28152 18.3846C7.895 18.1461 7.32769 17.7734 7.01782 17.5539C6.70272 17.3305 6.15701 16.9185 5.80129 16.6355C5.44295 16.3498 4.83043 15.8336 4.43606 15.4851C4.04234 15.1379 3.32893 14.4507 2.84547 13.9535C2.36396 13.4582 1.63483 12.6511 1.22081 12.1552C0.787129 11.6357 0.4111 11.1385 0.344279 11.0179C0.248634 10.845 0.236842 10.7847 0.260426 10.5895C0.276148 10.4565 0.34952 10.2436 0.41372 10.1421C0.484471 10.0307 0.850019 9.56427 1.26142 9.07294C1.65252 8.60585 2.36265 7.82235 2.84481 7.32709C3.32631 6.83117 4.03972 6.14397 4.4354 5.7948C4.82977 5.44628 5.4423 4.93006 5.80129 4.64444C6.15701 4.36143 6.70272 3.94937 7.01782 3.72533C7.32834 3.50587 7.895 3.13311 8.28152 2.89465C8.66213 2.65947 9.38144 2.25789 9.88521 1.99847C10.3831 1.74233 11.1063 1.4115 11.4974 1.25951C11.8911 1.10753 12.5423 0.888726 12.9491 0.772117C13.3546 0.656164 14.0477 0.500249 14.4932 0.424257C14.9334 0.350231 15.4077 0.274894 15.5283 0.260481C15.5374 0.259171 15.6292 0.25 16.1133 0.25C16.3884 0.25 16.7147 0.253275 17.0317 0.259171C18.0544 0.277514 18.4828 0.3142 19.1156 0.437359C19.5663 0.524488 20.2313 0.682368 20.5988 0.78915C20.9669 0.895932 21.5893 1.10688 21.9863 1.25951C22.3774 1.41084 23.1006 1.74233 23.5985 1.99782C24.1023 2.25724 24.8216 2.65882 25.2022 2.894C25.5887 3.13246 26.1554 3.50521 26.4659 3.72467C26.781 3.94806 27.3267 4.36012 27.6824 4.64313C28.0381 4.92613 28.6507 5.44235 29.0477 5.79283C29.4387 6.13807 30.1646 6.83969 30.6651 7.35657C31.163 7.87082 31.8915 8.67726 32.2898 9.15548C32.7084 9.6586 33.0733 10.1414 33.1388 10.2606C33.2344 10.4336 33.2462 10.4939 33.2226 10.6891C33.2069 10.8221 33.1335 11.035 33.0693 11.1365C32.9973 11.2498 32.6422 11.7032 32.2485 12.1735C31.8738 12.6223 31.163 13.4058 30.6644 13.9207C30.1659 14.4356 29.4407 15.1372 29.0477 15.4844C28.65 15.8356 28.0375 16.3511 27.6824 16.6341C27.3273 16.9172 26.7816 17.3292 26.4659 17.5533C26.1534 17.774 25.6012 18.1383 25.2349 18.3649C24.8668 18.5929 24.1475 18.9945 23.6313 19.2605C23.1091 19.5291 22.3708 19.8691 21.9863 20.0178C21.5932 20.1704 20.9421 20.3892 20.5352 20.5045C20.1212 20.6231 19.4268 20.7855 18.9866 20.8674C18.3013 20.9958 17.9862 21.0168 16.7415 21.0168L16.7422 21.0181ZM16.6754 1.93296C16.1067 1.93624 15.3691 1.98209 15.0317 2.0345C14.6996 2.08626 14.0844 2.22055 13.6612 2.33454C13.2393 2.44722 12.5508 2.67388 12.127 2.84028C11.7077 3.00471 10.976 3.34144 10.4964 3.59103C10.0234 3.83669 9.38275 4.19766 9.06895 4.39615C8.75974 4.59072 8.23959 4.9412 7.91007 5.17704C7.574 5.41746 7.02634 5.83411 6.68896 6.10597C6.34634 6.38112 5.73775 6.90586 5.33355 7.27533C4.92804 7.64678 4.31879 8.2403 3.97552 8.5993C3.63356 8.95568 3.12126 9.51579 2.83433 9.84727C2.2598 10.5083 2.2598 10.5338 2.2598 10.6406C2.2598 10.7474 2.2598 10.771 2.8304 11.4339C3.11537 11.7654 3.80585 12.4939 4.36924 13.0579C4.93525 13.6246 5.6932 14.338 6.05875 14.6485C6.41775 14.9538 7.01061 15.4294 7.38009 15.7098C7.74237 15.9836 8.3955 16.4415 8.83639 16.7298C9.27465 17.0161 10.0791 17.4753 10.6307 17.7537C11.1843 18.0335 11.9763 18.3839 12.3962 18.5353C12.8155 18.6872 13.4424 18.8871 13.7929 18.9807C14.1427 19.0738 14.7284 19.195 15.0992 19.2506C15.4713 19.307 16.2089 19.3528 16.7435 19.3528C17.2781 19.3528 18.015 19.307 18.3878 19.2506C18.754 19.1956 19.3986 19.0587 19.8244 18.9454C20.247 18.8327 20.9355 18.6054 21.3594 18.4396C21.7786 18.2752 22.5104 17.9385 22.9899 17.6889C23.4629 17.4432 24.1036 17.0822 24.4174 16.8837C24.7266 16.6885 25.2461 16.338 25.5763 16.1015C25.9123 15.8605 26.46 15.4438 26.7974 15.1726C27.1406 14.8975 27.7492 14.3734 28.1528 14.0039C28.5576 13.6331 29.1669 13.0389 29.5108 12.6799C29.8528 12.3236 30.3651 11.7641 30.652 11.432C31.2298 10.7664 31.2291 10.7402 31.2246 10.6288C31.2213 10.5417 31.2206 10.5083 30.859 10.0772C30.6867 9.87282 30.1895 9.32581 29.7506 8.85872C29.3025 8.38246 28.6015 7.68805 28.1875 7.31071C27.7669 6.92747 27.0705 6.33264 26.6349 5.98478C26.1973 5.63561 25.4105 5.06305 24.8812 4.70864C24.3466 4.35226 23.4531 3.82949 22.8884 3.54386C22.323 3.25627 21.5159 2.89727 21.0901 2.74333C20.6663 2.59069 20.04 2.39088 19.6928 2.29851C19.3423 2.20548 18.7566 2.08429 18.3865 2.02861C18.0013 1.9703 17.3586 1.93231 16.7507 1.93231H16.6754V1.93296ZM16.7422 16.961C15.981 16.961 15.658 16.9348 15.2996 16.8438C15.0428 16.7783 14.6236 16.6407 14.3845 16.5431C14.1421 16.4442 13.7366 16.2457 13.4988 16.1094C13.2642 15.9751 12.8777 15.7 12.655 15.5074C12.4336 15.3167 12.0792 14.9617 11.8807 14.733C11.6867 14.509 11.4077 14.1192 11.2721 13.8827C11.1345 13.6416 10.9353 13.2355 10.8384 12.997C10.7408 12.7579 10.6032 12.3386 10.5377 12.0818C10.4466 11.7241 10.4204 11.4005 10.4204 10.6399C10.4204 9.87937 10.4466 9.5551 10.5377 9.19741C10.6032 8.9393 10.7408 8.52003 10.8384 8.28223C10.9373 8.03984 11.1358 7.63368 11.2721 7.39653C11.4064 7.162 11.6815 6.77549 11.8741 6.55275C12.0647 6.33133 12.4198 5.97692 12.6484 5.77842C12.8725 5.58451 13.2623 5.30544 13.4988 5.16983C13.7398 5.03226 14.146 4.83311 14.3845 4.73615C14.6242 4.63854 15.0258 4.51014 15.2616 4.45511C15.5309 4.39222 15.7942 4.33457 15.8722 4.32082C15.8951 4.31754 16.0189 4.31099 16.3098 4.31099C16.4991 4.31099 16.7199 4.31361 16.9322 4.31951C17.5761 4.33523 17.9784 4.37715 18.2777 4.45904C18.5182 4.52455 18.8949 4.64968 19.1006 4.73288C19.3043 4.81476 19.6954 5.00867 19.9535 5.15542C20.2077 5.29954 20.6119 5.58582 20.8359 5.77973C21.0646 5.97823 21.4196 6.33264 21.6103 6.55406C21.8022 6.7768 22.078 7.16266 22.2123 7.39718C22.3486 7.63499 22.5477 8.0405 22.6466 8.28354C22.7436 8.52134 22.8812 8.94061 22.9473 9.19937C23.0384 9.55706 23.0646 9.88068 23.0646 10.6413C23.0646 11.4018 23.0384 11.7255 22.9473 12.0838C22.8818 12.3406 22.7442 12.7599 22.6466 12.999C22.549 13.2374 22.3505 13.6436 22.2123 13.8853C22.0767 14.1212 21.7976 14.511 21.6037 14.7357C21.4052 14.9643 21.0508 15.3194 20.8294 15.51C20.6066 15.7019 20.2208 15.9777 19.9863 16.112C19.7485 16.2483 19.3429 16.4474 19.0999 16.5464C18.8614 16.6433 18.4422 16.7809 18.1841 16.8471C17.8264 16.9375 17.5028 16.9643 16.7422 16.9643V16.961ZM16.8542 5.97037C16.6505 5.97037 16.3897 5.98412 16.1899 6.00574C15.8971 6.03719 15.4536 6.13742 15.1798 6.23503C14.9105 6.33002 14.5312 6.50493 14.317 6.63202C14.1015 6.75977 13.7195 7.07291 13.447 7.34478C13.1751 7.61795 12.862 7.99988 12.7336 8.21541C12.6072 8.42766 12.4329 8.80697 12.3373 9.07883C12.241 9.35201 12.1394 9.79486 12.1073 10.087C12.0739 10.3786 12.0739 10.8496 12.1073 11.1594C12.1401 11.47 12.241 11.9279 12.3379 12.2017C12.4336 12.4736 12.6078 12.8529 12.7343 13.0651C12.862 13.2807 13.1751 13.6626 13.447 13.9351C13.7195 14.207 14.1021 14.5201 14.3176 14.6485C14.5299 14.775 14.9092 14.9486 15.1811 15.0449C15.4542 15.1412 15.8971 15.2427 16.1893 15.2748C16.3288 15.2905 16.5168 15.2997 16.7193 15.2997C16.9217 15.2997 17.1136 15.2912 17.2617 15.2748C17.5722 15.2421 18.0301 15.1412 18.3039 15.0442C18.5758 14.9479 18.9551 14.7737 19.1674 14.6479C19.3829 14.5201 19.7648 14.207 20.0374 13.9351C20.3092 13.6619 20.6224 13.28 20.7501 13.0645C20.8765 12.8516 21.0567 12.4585 21.1595 12.169C21.3096 11.7484 21.3541 11.4765 21.3777 10.8463C21.3993 10.2711 21.3764 9.92392 21.2919 9.56492C21.229 9.29436 21.075 8.86724 20.9414 8.5934C20.8117 8.32678 20.5647 7.93044 20.3905 7.71032C20.2129 7.48562 19.8972 7.17052 19.6725 6.99233C19.4523 6.81807 19.056 6.5711 18.7894 6.44139C18.5162 6.3084 18.1022 6.15969 17.848 6.1027C17.5997 6.04701 17.2532 5.99199 17.0573 5.97757C17.0029 5.97364 16.9348 5.97102 16.8549 5.97102L16.8542 5.97037Z" fill="black" stroke="black" stroke-width="0.5"/>
</svg>
