<svg width="64" height="64" viewBox="5 6 34 34" fill="none" xmlns="http://www.w3.org/2000/svg">
<path d="M20.5196 35.0542C19.9759 34.9576 19.6134 34.4384 19.71 33.8947C19.8066 33.3509 20.3257 32.9884 20.8695 33.085L20.6946 34.0696L20.5196 35.0542ZM20.6946 34.0696L20.8695 33.085C26.5978 34.1028 32.0665 30.2842 33.0843 24.5559L34.0689 24.7309L35.0535 24.9058C33.8425 31.7216 27.3354 36.2652 20.5196 35.0542L20.6946 34.0696ZM34.0689 24.7309L33.0843 24.5559C34.1021 18.8277 30.2835 13.3589 24.5552 12.3411L24.7302 11.3565L24.9051 10.372C31.7209 11.583 36.2645 18.09 35.0535 24.9058L34.0689 24.7309ZM24.7302 11.3565L24.5552 12.3411C18.827 11.3233 13.3582 15.1419 12.3404 20.8702L11.3558 20.6953L10.3713 20.5203C11.5823 13.7045 18.0893 9.16095 24.9051 10.372L24.7302 11.3565Z" fill="black"/>
<line x1="1" y1="-1" x2="6.75279" y2="-1" transform="matrix(-0.463355 -0.886173 -0.886173 0.463355 10.5143 21.7561)" stroke="black" stroke-width="2" stroke-linecap="round"/>
<line x1="1" y1="-1" x2="6.68959" y2="-1" transform="matrix(0.889383 -0.457163 -0.457163 -0.889383 10.1588 20.8887)" stroke="black" stroke-width="2" stroke-linecap="round"/>
</svg>
