<svg width="29" height="29" viewBox="0 -3 29 29" fill="none" xmlns="http://www.w3.org/2000/svg">
<path d="M18.289 7.50228C21.3856 7.5023 23.8959 10.0126 23.8959 13.1092C23.8959 16.2058 21.3856 18.7161 18.289 18.7162L5.2244 18.7161C4.71428 18.7161 4.30077 19.1296 4.30087 19.6396C4.30081 20.1497 4.7143 20.5632 5.2244 20.5631L18.289 20.5632C22.4058 20.5633 25.7431 17.226 25.743 13.1092C25.743 8.99246 22.4057 5.65521 18.289 5.65521L12.6784 5.65518L16.3261 2.00741C16.6868 1.64674 16.6868 1.06198 16.3261 0.701316C15.9655 0.340652 15.3807 0.340652 15.02 0.701316L9.79566 5.92569C9.70712 6.01423 9.6403 6.11628 9.59524 6.22521C9.55214 6.32915 9.52747 6.44266 9.52531 6.56169C9.5251 6.57305 9.5251 6.58441 9.52531 6.59578C9.52747 6.7148 9.55214 6.82831 9.59524 6.93225C9.6403 7.04118 9.70711 7.14323 9.79566 7.23178L15.02 12.4561C15.3807 12.8168 15.9655 12.8168 16.3261 12.4561C16.6868 12.0955 16.6868 11.5107 16.3261 11.1501L12.6784 7.50228L18.289 7.50228Z" fill="black"/>
</svg>
